{
	"nodes":[{
		"name":"Orange 02",
		"children":[1]
	},
	{
		"name":"Orange Cut",
		"mesh":0
	},
	{
		"name":"Orange 02",
		"children":[3]
	},
	{
		"name":"Orange Cut",
		"mesh":1
	},
	{
		"name":"Orange 02",
		"children":[5]
	},
	{
		"name":"Orange Cut",
		"mesh":2
	}],
	"asset":{
		"version":"2.0",
		"generator":"Created using the official Cinema 4D glTF Exporter 1.000x284978"
	},
	"materials":[{
		"pbrMetallicRoughness":{
			"baseColorFactor":[0.7892000000000001,
			0.15199999999999998,
			0.8,
			1.0],
			"metallicFactor":0.0,
			"roughnessFactor":0.5
		},
		"emissiveFactor":[0.0,
		0.0,
		0.0],
		"alphaMode":"OPAQUE",
		"doubleSided":false,
		"name":"Mat"
	},
	{
		"pbrMetallicRoughness":{
			"baseColorFactor":[1.0,
			1.0,
			1.0,
			1.0],
			"metallicFactor":1.0,
			"roughnessFactor":1.0
		},
		"emissiveFactor":[0.0,
		0.0,
		0.0],
		"alphaMode":"OPAQUE",
		"doubleSided":false,
		"name":"Orange Cut"
	},
	{
		"pbrMetallicRoughness":{
			"baseColorFactor":[1.0,
			1.0,
			1.0,
			1.0],
			"metallicFactor":1.0,
			"roughnessFactor":1.0
		},
		"emissiveFactor":[0.0,
		0.0,
		0.0],
		"alphaMode":"OPAQUE",
		"doubleSided":false,
		"name":"Orange Cut"
	}],
	"scenes":[{
		"nodes":[0,
		2,
		4]
	}],
	"meshes":[{
		"name":"Orange Cut",
		"primitives":[{
			"indices":0,
			"attributes":{
				"POSITION":1,
				"NORMAL":2,
				"TEXCOORD_0":3
			},
			"material":0
		}]
	},
	{
		"name":"Orange Cut",
		"primitives":[{
			"indices":4,
			"attributes":{
				"POSITION":5,
				"NORMAL":6,
				"TEXCOORD_0":7
			},
			"material":1
		}]
	},
	{
		"name":"Orange Cut",
		"primitives":[{
			"indices":8,
			"attributes":{
				"POSITION":9,
				"NORMAL":10,
				"TEXCOORD_0":11
			},
			"material":2
		}]
	}],
	"buffers":[{
		"uri":"data:application/octet-stream;base64,",
		"byteLength":225664
	},
	{
		"uri":"data:application/octet-stream;base64,",
		"byteLength":225664
	},
	{
		"uri":"data:application/octet-stream;base64,",
		"byteLength":225664
	}],
	"accessors":[{
		"bufferView":0,
		"type":"SCALAR",
		"componentType":5123,
		"count":29760,
		"byteOffset":0,
		"min":[0],
		"max":[5191]
	},
	{
		"bufferView":1,
		"type":"VEC3",
		"componentType":5126,
		"count":5192,
		"byteOffset":0,
		"min":[-86.21339416503906,
		-1.107254147529602,
		-85.12828826904297],
		"max":[83.17984008789063,
		80.96501922607422,
		85.25633239746094]
	},
	{
		"bufferView":1,
		"type":"VEC3",
		"componentType":5126,
		"count":5192,
		"byteOffset":12,
		"min":[-0.993039608001709,
		-0.9999958872795105,
		-0.9910164475440979],
		"max":[0.9910475015640259,
		1.0,
		0.9943946003913879]
	},
	{
		"bufferView":1,
		"type":"VEC2",
		"componentType":5126,
		"count":5192,
		"byteOffset":24,
		"min":[0.0,
		0.002621948719024658],
		"max":[1.0,
		0.9838274717330933]
	},
	{
		"bufferView":2,
		"type":"SCALAR",
		"componentType":5123,
		"count":29760,
		"byteOffset":0,
		"min":[0],
		"max":[5191]
	},
	{
		"bufferView":3,
		"type":"VEC3",
		"componentType":5126,
		"count":5192,
		"byteOffset":0,
		"min":[-4.0927228927612309,
		-0.05256357789039612,
		-4.041210651397705],
		"max":[3.9487144947052,
		3.8435721397399904,
		4.04728889465332]
	},
	{
		"bufferView":3,
		"type":"VEC3",
		"componentType":5126,
		"count":5192,
		"byteOffset":12,
		"min":[-0.9930396676063538,
		-0.9999958872795105,
		-0.9910167455673218],
		"max":[0.9910469651222229,
		1.0,
		0.9943948984146118]
	},
	{
		"bufferView":3,
		"type":"VEC2",
		"componentType":5126,
		"count":5192,
		"byteOffset":24,
		"min":[0.0,
		0.002621948719024658],
		"max":[1.0,
		0.9838274717330933]
	},
	{
		"bufferView":4,
		"type":"SCALAR",
		"componentType":5123,
		"count":29760,
		"byteOffset":0,
		"min":[0],
		"max":[5191]
	},
	{
		"bufferView":5,
		"type":"VEC3",
		"componentType":5126,
		"count":5192,
		"byteOffset":0,
		"min":[-4.0927228927612309,
		-0.05256357789039612,
		-4.041210651397705],
		"max":[3.9487144947052,
		3.8435721397399904,
		4.04728889465332]
	},
	{
		"bufferView":5,
		"type":"VEC3",
		"componentType":5126,
		"count":5192,
		"byteOffset":12,
		"min":[-0.9930396676063538,
		-0.9999958872795105,
		-0.9910167455673218],
		"max":[0.9910469651222229,
		1.0,
		0.9943948984146118]
	},
	{
		"bufferView":5,
		"type":"VEC2",
		"componentType":5126,
		"count":5192,
		"byteOffset":24,
		"min":[0.0,
		0.002621948719024658],
		"max":[1.0,
		0.9838274717330933]
	}],
	"bufferViews":[{
		"buffer":0,
		"byteOffset":0,
		"byteLength":59520,
		"target":34963
	},
	{
		"buffer":0,
		"byteOffset":59520,
		"byteLength":166144,
		"target":34962,
		"byteStride":32
	},
	{
		"buffer":1,
		"byteOffset":0,
		"byteLength":59520,
		"target":34963
	},
	{
		"buffer":1,
		"byteOffset":59520,
		"byteLength":166144,
		"target":34962,
		"byteStride":32
	},
	{
		"buffer":2,
		"byteOffset":0,
		"byteLength":59520,
		"target":34963
	},
	{
		"buffer":2,
		"byteOffset":59520,
		"byteLength":166144,
		"target":34962,
		"byteStride":32
	}]
}